<svg viewBox="0 0 32 32" xml:space="preserve" xmlns="http://www.w3.org/2000/svg" fill-rule="evenodd" clip-rule="evenodd" stroke-linejoin="round" stroke-miterlimit="2"><path d="M20.852 6.744c3.074 1.756 5.15 5.126 5.15 8.986 0 5.664-4.474 10.275-10 10.275s-10-4.611-10-10.275c0-4.566 2.906-8.446 6.93-9.781a1 1 0 1 0-.629-1.898c-4.81 1.595-8.301 6.221-8.301 11.679 0 6.782 5.384 12.275 12 12.275s12-5.493 12-12.275c0-4.431-2.3-8.314-5.74-10.472l1.211-.324a1 1 0 0 0-.517-1.932l-3.864 1.035a1 1 0 0 0-.707 1.225l1.035 3.864a1 1 0 0 0 1.932-.518l-.5-1.864Z" fill="#ffffff" class="fill-000000"></path></svg>